<svg width="500" height="500" viewBox="0 0 500 500" fill="none" xmlns="http://www.w3.org/2000/svg">
<path d="M0.000488281 0C0.000488281 66.3041 26.3397 129.893 73.2238 176.777C120.108 223.661 183.696 250 250 250C316.305 250 379.893 223.661 426.777 176.777C473.661 129.893 500 66.3042 500 3.77489e-05L0.000488281 0Z" fill="black"/>
<path d="M500 500C500 433.696 473.661 370.108 426.777 323.223C379.893 276.339 316.305 250 250 250C183.696 250 120.107 276.339 73.2233 323.223C26.3392 370.108 1.00116e-05 433.696 0 500L500 500Z" fill="black"/>
</svg>
